<svg width="36" height="36" viewBox="0 0 36 36" fill="none" xmlns="http://www.w3.org/2000/svg">
<circle cx="18" cy="18" r="17" stroke="#0A3B66" stroke-width="2"/>
<path d="M19.6326 22.3327C19.5453 22.3329 19.4613 22.2987 19.3989 22.2376C19.3365 22.1765 19.3006 22.0933 19.299 22.006L19.2893 21.3204C19.2897 21.277 19.2987 21.2341 19.3157 21.1942C19.3327 21.1543 19.3574 21.1182 19.3884 21.0879C19.4194 21.0575 19.4561 21.0336 19.4963 21.0174C19.5366 21.0013 19.5796 20.9932 19.623 20.9937H27.6687C27.85 20.9937 27.9977 21.139 28 21.3204V22.0064C27.9993 22.0936 27.964 22.177 27.9019 22.2382C27.8398 22.2995 27.7559 22.3335 27.6687 22.333C27.5477 22.331 24.869 22.331 19.6326 22.333V22.3327ZM19.6166 25.3377C19.5293 25.3379 19.4453 25.3037 19.3829 25.2426C19.3205 25.1815 19.2846 25.0983 19.283 25.011L19.2896 24.326C19.2901 24.2827 19.299 24.2398 19.316 24.2C19.333 24.1601 19.3577 24.124 19.3886 24.0936C19.4196 24.0633 19.4562 24.0394 19.4964 24.0232C19.5366 24.007 19.5796 23.9989 19.623 23.9993H27.6687C27.85 23.9993 27.9977 24.1447 28 24.326L27.9933 25.0087C27.9923 25.096 27.957 25.1793 27.8951 25.2409C27.8332 25.3024 27.7496 25.3372 27.6623 25.3377H19.6166ZM19.6233 28C19.5359 28.0003 19.4519 27.9662 19.3894 27.9051C19.3269 27.844 19.2909 27.7607 19.2893 27.6733V26.9977C19.2897 26.9543 19.2987 26.9114 19.3157 26.8716C19.3327 26.8317 19.3574 26.7955 19.3884 26.7652C19.4194 26.7348 19.4561 26.7109 19.4963 26.6947C19.5366 26.6786 19.5796 26.6705 19.623 26.671H27.6687C27.85 26.671 27.9977 26.8163 28 26.9977V27.671C27.9977 27.8523 27.85 27.9977 27.6687 28H19.6233ZM17.8383 22.1813C15.4949 22.1813 13.5869 20.3047 13.5869 17.9977C13.5869 15.6907 15.4926 13.814 17.8383 13.814C20.1816 13.814 22.0896 15.6907 22.0896 17.9977C22.0896 18.486 22.005 18.97 21.836 19.427H20.201C20.4721 18.9995 20.6163 18.5039 20.617 17.9977C20.617 16.4934 19.3693 15.2674 17.8383 15.2674C16.3099 15.2674 15.0623 16.4934 15.0623 17.9977C15.0623 19.5044 16.3076 20.7304 17.8383 20.7304V22.1813ZM17.9999 27V27.6733C17.9976 27.8647 17.8569 27.9977 17.6636 27.9977H15.9979C15.3379 28.005 15.0323 27.3243 14.9959 26.6663L14.6559 25.333C14.0496 25.0793 13.4759 24.7857 12.9459 24.3963L11.5582 24.9553C10.9682 25.2553 10.2476 25.0473 9.9089 24.4787L8.16756 21.5217C8.00711 21.249 7.95955 20.9244 8.03502 20.6172C8.1105 20.3099 8.30303 20.0443 8.57156 19.877L9.76156 18.9704C9.6745 18.326 9.6745 17.6728 9.76156 17.0284L8.57389 16.1214C8.30654 15.9549 8.11458 15.6908 8.03872 15.3851C7.96286 15.0794 8.00907 14.7562 8.16756 14.484L9.90656 11.5217C10.0693 11.2482 10.3299 11.0466 10.6355 10.9577C10.9411 10.8688 11.2691 10.8992 11.5532 11.0427L12.9439 11.6014C13.4719 11.2099 14.0461 10.8851 14.6536 10.6341L14.8569 9.16873C14.8731 8.85123 15.0114 8.55229 15.243 8.33446C15.4745 8.11664 15.7814 7.99681 16.0993 8.00006H19.5743C20.242 8.00006 20.786 8.5104 20.8176 9.16573L21.0206 10.6337C21.6281 10.8862 22.2029 11.211 22.7326 11.6011L24.1233 11.0451C24.4073 10.9022 24.7347 10.8718 25.0401 10.9602C25.3455 11.0485 25.6062 11.249 25.77 11.5214L27.504 14.4814C27.6647 14.7538 27.7127 15.0782 27.6377 15.3854C27.5626 15.6926 27.3705 15.9584 27.1023 16.126C26.7436 16.4309 26.3753 16.7244 25.998 17.006C25.998 17.435 26.006 18.2127 26.0217 19.34H24.3303L24.3116 16.4134L26.1257 15.0327L24.5756 12.387L22.4763 13.2747L22.133 12.9867C21.5281 12.4849 20.8385 12.0952 20.0966 11.8357L19.6783 11.6857L19.369 9.45139H16.3049L15.9953 11.6857L15.5769 11.8357C14.8349 12.0975 14.1448 12.4879 13.5383 12.989L13.1972 13.2724L11.0812 12.421L9.54823 15.0277L11.3619 16.4087L11.2819 16.8417C11.2099 17.222 11.1728 17.608 11.1709 17.995C11.1732 18.3824 11.2096 18.7717 11.2796 19.1514L11.3572 19.584L9.5459 20.965L11.1009 23.6107L13.0089 22.677L15.9976 24.3353L16.3333 26.6663C17.1916 26.6647 17.6353 26.6647 17.6636 26.6663C17.7063 26.67 17.9999 26.832 17.9999 27Z" fill="#0A3B66"/>
</svg>
